<svg width="60" height="60" viewBox="0 0 60 60" fill="none" xmlns="http://www.w3.org/2000/svg">
<path d="M58.9752 36.6999C58.9241 33.2813 57.5288 30.2361 55.0464 28.125C52.5641 26.0143 49.3342 25.1264 45.9517 25.625C45.9205 25.6295 45.8894 25.6354 45.8582 25.6403V21.123C45.8582 18.3743 43.622 16.1383 40.8734 16.1383H40.0472V13.4792C40.0472 11.2829 38.2603 9.49609 36.064 9.49609H33.0727C30.8764 9.49609 29.0897 11.2829 29.0897 13.4792V16.1383H19.1256C16.377 16.1383 14.1408 18.3745 14.1408 21.123V25.6403C14.1096 25.6355 14.0785 25.6296 14.0473 25.625C10.6644 25.1261 7.43499 26.0143 4.95272 28.125C2.47022 30.2361 1.07499 33.2814 1.0239 36.6999C0.975381 39.9393 2.15815 43.1454 4.35413 45.7279C6.55022 48.3104 9.52468 49.9927 12.7298 50.4653C12.9156 50.4927 13.1018 50.5145 13.288 50.5336C12.9132 51.2489 12.6999 52.0616 12.6999 52.9237V54.833C12.6999 57.6822 15.0178 60.0002 17.867 60.0002H42.1319C44.981 60.0002 47.299 57.6822 47.299 54.833V52.9237C47.299 52.0616 47.0857 51.2489 46.7108 50.5336C46.8971 50.5145 47.0834 50.4927 47.2692 50.4653C50.4742 49.9927 53.4488 48.3102 55.6449 45.7279C57.841 43.1454 59.0236 39.9393 58.9752 36.6999ZM14.1409 43.8378C13.9994 43.8276 13.8571 43.8133 13.7139 43.7922C12.1278 43.5583 10.6287 42.6939 9.4928 41.3582C8.3569 40.0224 7.74448 38.4039 7.76862 36.8009C7.7903 35.3536 8.34214 34.0975 9.32253 33.2636C10.1123 32.5921 11.1234 32.2372 12.2466 32.2372C12.8836 32.237 13.531 32.3529 14.1409 32.5591V43.8378ZM16.4985 24.9687H43.5006V27.0637V27.0641V47.9419C43.0644 47.8219 42.6058 47.7565 42.132 47.7565H17.8671C17.3934 47.7565 16.9347 47.8219 16.4985 47.9419V24.9687ZM45.8582 32.5589C46.4682 32.3528 47.1155 32.2369 47.7525 32.237C48.8758 32.237 49.8867 32.592 50.6765 33.2635C51.657 34.0973 52.2089 35.3534 52.2305 36.8008C52.2544 38.4038 51.6421 40.0223 50.5063 41.3581C49.3703 42.6938 47.8712 43.5583 46.2853 43.7921C46.142 43.8132 45.9998 43.8276 45.8581 43.8377V32.5589H45.8582ZM31.4473 13.4792C31.4473 12.5829 32.1764 11.8537 33.0727 11.8537H36.064C36.9603 11.8537 37.6895 12.5829 37.6895 13.4792V16.1383H31.4472V13.4792H31.4473ZM19.1256 18.4959H40.8734C42.3221 18.4959 43.5006 19.6744 43.5006 21.123V22.611H16.4985V21.123C16.4985 19.6744 17.6771 18.4959 19.1256 18.4959ZM6.15026 44.2006C4.32472 42.0539 3.3414 39.4027 3.38136 36.7352C3.42214 34.0056 4.52265 31.5857 6.48015 29.9211C8.43753 28.2566 11.0024 27.5593 13.7036 27.9573C13.8494 27.9788 13.9951 28.0047 14.1409 28.0326V31.0809C13.5267 30.9139 12.8771 30.822 12.2466 30.8226C10.7832 30.8226 9.45518 31.294 8.40624 32.1861C7.11073 33.2876 6.38206 34.9191 6.35417 36.7797C6.32499 38.7258 7.05694 40.6773 8.41526 42.2745C9.77347 43.8718 11.582 44.9077 13.5078 45.1916C13.7199 45.2229 13.9312 45.2433 14.141 45.2553V48.1207C14.141 48.1588 14.1432 48.1964 14.1468 48.2337C13.7912 48.2191 13.4319 48.1857 13.0739 48.1329C10.4345 47.7438 7.97569 46.3472 6.15026 44.2006ZM44.9416 54.8331C44.9416 56.3823 43.6813 57.6427 42.132 57.6427H17.8671C16.3179 57.6427 15.0576 56.3823 15.0576 54.8331V52.9238C15.0576 51.3746 16.3179 50.1142 17.8671 50.1142H42.132C43.6812 50.1142 44.9416 51.3746 44.9416 52.9238V54.8331ZM53.8489 44.2006C52.0233 46.3473 49.5645 47.7439 46.9253 48.1329C46.5673 48.1858 46.208 48.2191 45.8525 48.2337C45.856 48.1966 45.8582 48.1588 45.8582 48.1207V45.2553C46.0682 45.2433 46.2794 45.2228 46.4916 45.1916C48.4172 44.9077 50.2258 43.8718 51.5839 42.2745C52.9422 40.6773 53.6741 38.7258 53.6449 36.7797C53.6171 34.919 52.8884 33.2876 51.5929 32.1861C50.5441 31.294 49.2161 30.8226 47.7525 30.8226C47.1218 30.822 46.4725 30.914 45.8582 31.0809V28.0327C46.004 28.0048 46.1498 27.9789 46.2955 27.9573C48.9973 27.5593 51.5618 28.2566 53.519 29.9211C55.4766 31.5856 56.5771 34.0056 56.6178 36.7352C56.6577 39.4027 55.6744 42.0539 53.8489 44.2006Z" fill="#73BE48"/>
<path d="M29.9996 44.1885C33.3491 44.1885 36.0743 41.4634 36.0743 38.1137C36.0743 34.974 31.099 29.2016 30.5317 28.5538C30.3974 28.4004 30.2034 28.3125 29.9996 28.3125C29.7957 28.3125 29.6018 28.4005 29.4674 28.5538C28.9001 29.2017 23.9248 34.9741 23.9248 38.1137C23.9248 41.4634 26.6499 44.1885 29.9996 44.1885ZM29.9997 30.1116C31.6671 32.1206 34.6598 36.1358 34.6598 38.1138C34.6598 40.6835 32.5693 42.774 29.9996 42.774C27.43 42.774 25.3394 40.6835 25.3394 38.1138C25.3394 36.1376 28.3322 32.1213 29.9997 30.1116Z" fill="#73BE48"/>
<path d="M19.7066 31.8594C19.0556 31.8673 18.5342 32.4014 18.5421 33.0524C18.5558 34.189 18.5558 35.4818 18.5421 36.6928C18.5347 37.3438 19.0565 37.8775 19.7075 37.885H19.7212C20.366 37.885 20.8923 37.3659 20.8997 36.7195C20.9136 35.4908 20.9136 34.1783 20.8995 33.024C20.8917 32.373 20.3561 31.8543 19.7066 31.8594Z" fill="#73BE48"/>
<path d="M19.7208 30.1906C20.3719 30.1906 20.8996 29.6629 20.8996 29.0118V28.2999C20.8996 27.6488 20.3719 27.1211 19.7208 27.1211C19.0698 27.1211 18.542 27.6488 18.542 28.2999V29.0118C18.542 29.6628 19.0698 30.1906 19.7208 30.1906Z" fill="#73BE48"/>
<path d="M38.8685 45.9814C39.2591 45.9814 39.5757 45.6647 39.5757 45.2741V43.8479C39.5757 43.4573 39.2591 43.1406 38.8685 43.1406C38.4779 43.1406 38.1611 43.4573 38.1611 43.8479V45.2741C38.1611 45.6647 38.4779 45.9814 38.8685 45.9814Z" fill="#73BE48"/>
<path d="M35.3674 29.7236C35.758 29.7236 36.0746 29.4069 36.0746 29.0163V27.59C36.0746 27.1995 35.758 26.8828 35.3674 26.8828C34.9768 26.8828 34.6602 27.1995 34.6602 27.59V29.0163C34.6602 29.4069 34.9768 29.7236 35.3674 29.7236Z" fill="#73BE48"/>
<path d="M39.1994 33.9659C39.59 33.9659 39.9066 33.6492 39.9066 33.2586V31.8322C39.9066 31.4416 39.59 31.125 39.1994 31.125C38.8088 31.125 38.4922 31.4416 38.4922 31.8322V33.2585C38.4922 33.6492 38.8088 33.9659 39.1994 33.9659Z" fill="#73BE48"/>
<path d="M8.81772 5.38647L11.3191 6.51346C11.4262 6.56174 11.511 6.65725 11.5539 6.77771L12.5552 9.59303C12.6966 9.99076 13.1969 9.99076 13.3383 9.59303L14.3396 6.77771C14.3825 6.65725 14.4673 6.56162 14.5744 6.51346L17.0758 5.38647C17.4292 5.22732 17.4292 4.66424 17.0758 4.50498L14.5744 3.37799C14.4673 3.32971 14.3825 3.2342 14.3396 3.11373L13.3383 0.298301C13.1969 -0.0994336 12.6966 -0.0994336 12.5552 0.298301L11.5539 3.11373C11.511 3.2342 11.4262 3.32971 11.3191 3.37799L8.81772 4.50498C8.4644 4.66424 8.4644 5.22721 8.81772 5.38647Z" fill="#73BE48"/>
<path d="M26.4438 6.61692C27.5595 6.15447 28.089 4.87516 27.6265 3.75949C27.1641 2.64382 25.8848 2.11428 24.7691 2.57673C23.6534 3.03918 23.1239 4.31849 23.5864 5.43416C24.0488 6.54983 25.3281 7.07937 26.4438 6.61692Z" fill="#73BE48"/>
<path d="M7.37646 17.5206C7.40458 17.0098 7.01326 16.5729 6.50241 16.5447C5.99156 16.5166 5.55464 16.9079 5.52651 17.4188C5.49839 17.9296 5.88971 18.3665 6.40056 18.3947C6.91141 18.4228 7.34833 18.0315 7.37646 17.5206Z" fill="#73BE48"/>
<path d="M46.8538 12.8587L48.7093 13.6947C48.7887 13.7306 48.8517 13.8014 48.8834 13.8908L49.6261 15.9792C49.731 16.2743 50.1022 16.2743 50.207 15.9792L50.9498 13.8908C50.9815 13.8014 51.0446 13.7306 51.124 13.6947L52.9795 12.8587C53.2416 12.7406 53.2416 12.3229 52.9795 12.2049L51.124 11.369C51.0446 11.3333 50.9816 11.2624 50.9498 11.173L50.207 9.08459C50.102 8.78951 49.731 8.78951 49.6261 9.08459L48.8834 11.173C48.8517 11.2624 48.7887 11.3333 48.7093 11.369L46.8538 12.2049C46.5917 12.3229 46.5917 12.7406 46.8538 12.8587Z" fill="#73BE48"/>
</svg>
