<svg width="60" height="60" viewBox="0 0 60 60" fill="none" xmlns="http://www.w3.org/2000/svg">
<g clip-path="url(#clip0_5621_2693)">
<path d="M56.666 15.8062H55.1586V15.0927C55.1586 13.8224 54.2991 12.7128 53.0682 12.3946C45.3982 10.412 37.637 11.5259 29.9908 15.7014C22.743 11.8757 15.0315 10.7746 7.05887 12.431C5.77355 12.698 4.84074 13.8451 4.84074 15.1588V15.8063H3.33336C1.53043 15.8063 0.0634766 17.2732 0.0634766 19.0763V53.4297C0.0634766 55.2326 1.53031 56.6996 3.33336 56.6996H22.8607C23.6073 56.6996 24.2884 57.0391 24.6825 57.6078C25.705 59.0832 27.7423 59.9999 29.9996 59.9999C32.2569 59.9999 34.2943 59.0832 35.3168 57.6076C35.711 57.0388 36.3921 56.6993 37.1387 56.6993H56.6659C58.4689 56.6993 59.9359 55.2324 59.9359 53.4294V19.0762C59.936 17.273 58.469 15.8062 56.666 15.8062ZM52.4791 14.6734C52.6709 14.723 52.8049 14.8955 52.8049 15.0927V48.1777C52.7548 48.5075 52.6229 48.6133 52.287 48.5996C44.8432 47.1809 37.9732 48.0782 31.2852 51.3422C31.256 51.3746 31.1604 51.319 31.1768 51.276V17.7342C38.2631 13.881 45.427 12.8508 52.4791 14.6734ZM7.19469 15.1587C7.19469 14.9548 7.33895 14.7769 7.53769 14.7357C15.0404 13.1767 22.0104 14.1607 28.8228 17.7449V51.1494C28.8396 51.1964 28.7379 51.2479 28.7096 51.2132V51.2133C22.475 47.8469 15.6071 46.9857 7.71441 48.5805C7.53793 48.6163 7.4116 48.5399 7.35207 48.4912C7.29336 48.443 7.1948 48.336 7.1948 48.1589L7.19469 15.1587ZM57.5821 53.4294C57.5821 53.9345 57.1712 54.3455 56.666 54.3455H37.1388C35.6204 54.3455 34.216 55.0637 33.3822 56.2669C32.9066 56.9533 31.6762 57.646 29.9997 57.646C28.3234 57.646 27.0929 56.9533 26.6172 56.2668C25.7834 55.0636 24.3791 54.3455 22.8607 54.3455H3.33336C2.82816 54.3455 2.4173 53.9346 2.4173 53.4294V19.0762C2.4173 18.571 2.82816 18.16 3.33336 18.16H4.84086V48.1591C4.84086 48.9973 5.21293 49.7823 5.86145 50.313C6.51137 50.8449 7.35687 51.0542 8.18047 50.8878C15.512 49.4063 21.8608 50.1905 27.5913 53.2845V53.2846C27.9566 53.4817 28.3531 53.58 28.7489 53.58C29.1421 53.58 29.5343 53.4818 29.8944 53.2885C30.2984 53.5653 30.7777 53.7061 31.2495 53.7061C31.6126 53.706 31.9771 53.6237 32.3172 53.4579C38.5318 50.4249 44.9199 49.5921 51.8463 50.912C52.6678 51.0686 53.5073 50.8531 54.1503 50.3209C54.7911 49.7909 55.1586 49.0096 55.1586 48.1778V18.16H56.666C57.1711 18.16 57.5821 18.571 57.5821 19.0762V53.4294Z" fill="#73BE48"/>
<path d="M13.0986 42.0279H13.1116C13.1475 42.0277 17.4061 42.0087 18.5886 42.0087C22.5018 42.0087 25.6854 38.8252 25.6854 34.912C25.6854 32.9797 24.9059 31.1555 23.528 29.8207C23.9957 28.911 24.2406 27.9037 24.2406 26.8743C24.2406 23.3078 21.339 20.4062 17.7725 20.4062H13.0987C11.5737 20.4062 10.333 21.6469 10.333 23.172V39.2621C10.333 39.9925 10.6298 40.7069 11.1475 41.2221C11.6692 41.7419 12.3621 42.0279 13.0986 42.0279ZM11.7452 23.172C11.7452 22.4257 12.3524 21.8185 13.0987 21.8185H17.7725C20.5603 21.8185 22.8282 24.0865 22.8282 26.8742C22.8282 27.8364 22.5541 28.7741 22.0356 29.5861C21.8429 29.8878 21.9064 30.2859 22.1834 30.5126C23.5114 31.6 24.273 33.2035 24.273 34.9118C24.273 38.0463 21.723 40.5963 18.5886 40.5963C17.4037 40.5963 13.1401 40.6152 13.0986 40.6155C12.7382 40.6155 12.3991 40.4754 12.1438 40.2213C11.8904 39.9691 11.7452 39.6195 11.7452 39.262V23.172Z" fill="#73BE48"/>
<path d="M15.1583 29.2294C15.8888 29.2309 17.2759 29.2249 17.7725 29.225C19.0676 29.225 20.1213 28.1713 20.1213 26.8761C20.1213 25.5811 19.0676 24.5273 17.7725 24.5273H15.1583C14.7683 24.5273 14.4521 24.8435 14.4521 25.2335V28.5233C14.4521 28.9132 14.7683 29.2294 15.1583 29.2294ZM15.8644 25.9397H17.7724C18.2889 25.9397 18.7089 26.3598 18.7089 26.8761C18.7089 27.3925 18.2887 27.8127 17.7724 27.8127C17.4157 27.8121 16.5397 27.8163 15.8644 27.817V25.9397Z" fill="#73BE48"/>
<path d="M15.1583 37.8993H15.1611C16.4421 37.8941 17.9592 37.8887 18.5886 37.8887C20.2304 37.8887 21.5661 36.5531 21.5661 34.9112C21.5661 33.2694 20.2305 31.9337 18.5886 31.9337C17.9265 31.9337 15.7802 31.9326 15.1556 31.9371C14.7667 31.9386 14.4521 32.2543 14.4521 32.6433V37.1931C14.4521 37.3809 14.527 37.5609 14.6599 37.6934C14.7923 37.8253 14.9715 37.8993 15.1583 37.8993ZM15.8644 33.3469L18.5885 33.346C19.4516 33.346 20.1537 34.0482 20.1537 34.9112C20.1537 35.7743 19.4515 36.4764 18.5885 36.4764C18.0714 36.4764 16.9564 36.48 15.8644 36.4842V33.3469Z" fill="#73BE48"/>
<path d="M34.7907 31.4408C33.8915 33.1343 33.97 35.1872 35.0016 36.8044C34.9791 36.876 34.9498 36.9603 34.927 37.0254C34.7684 37.4797 34.5712 38.0449 34.9842 38.4578C35.3962 38.8701 35.9676 38.6857 36.4266 38.5376C36.4992 38.5143 36.5944 38.4835 36.6713 38.4619C37.5371 39.0056 38.5192 39.2783 39.5026 39.2783C40.3571 39.2783 41.212 39.0707 41.9926 38.6575C42.6674 39.3496 43.5637 39.7711 44.5349 39.7711C44.5903 39.7711 44.6458 39.7697 44.7016 39.767C45.7144 39.717 46.6388 39.2249 47.3048 38.3813C47.9483 37.566 48.2728 36.5146 48.2187 35.4208C48.1624 34.2812 47.4876 32.7859 47.0405 31.9101C47.3777 31.7253 47.69 31.494 47.9635 31.2204C48.7305 30.4535 49.1527 29.434 49.1527 28.3496C49.1527 28.1377 49.1361 27.9284 49.1044 27.7228L50.2531 27.2203C50.6104 27.064 50.7734 26.6476 50.6171 26.2905C50.4606 25.933 50.0443 25.7704 49.6872 25.9265L48.6452 26.3823C48.4633 26.0551 48.2356 25.7508 47.9635 25.4787C47.6914 25.2066 47.3872 24.9789 47.0599 24.797L47.5157 23.755C47.672 23.3978 47.509 22.9814 47.1517 22.8251C46.7947 22.6685 46.3781 22.8318 46.2219 23.1891L45.7194 24.3378C45.5138 24.3061 45.3046 24.2895 45.0928 24.2895C44.0082 24.2895 42.9887 24.7117 42.2218 25.4786C41.9494 25.7508 41.7179 26.0622 41.5332 26.3983C40.6566 25.9491 39.172 25.2768 38.0381 25.2178C36.9463 25.1611 35.8921 25.4831 35.0754 26.1245C34.2302 26.7884 33.7358 27.7116 33.6833 28.7241C33.6294 29.7613 34.0579 30.7253 34.7907 31.4408ZM40.7771 35.3543L38.0825 32.6596C39.4794 32.5793 41.2506 31.8634 41.832 31.6131C41.5796 32.1955 40.8618 33.9598 40.7771 35.3543ZM37.2872 37.1769C37.0089 36.986 36.7026 37.0009 36.3924 37.0755C36.4707 36.7702 36.4854 36.4684 36.2915 36.1929C35.5147 35.0892 35.3694 33.6729 35.8735 32.4478L40.9929 37.5674C39.7842 38.0663 38.3921 37.9353 37.2872 37.1769ZM46.1963 37.506C45.7867 38.0247 45.2314 38.3268 44.6321 38.3564C43.3603 38.4209 42.2587 37.2364 42.1836 35.719V35.7191C42.1103 34.2378 43.4334 31.2372 44.1383 30.3087C44.1765 30.2762 44.2119 30.2445 44.2455 30.2133C45.0022 30.9424 46.7323 33.9547 46.8083 35.4904C46.8454 36.2431 46.628 36.9591 46.1963 37.506ZM45.0926 25.7016C45.7999 25.7016 46.4647 25.977 46.9649 26.477C47.465 26.9772 47.7404 27.6421 47.7404 28.3494C47.7404 29.0567 47.465 29.7215 46.9649 30.2217C46.7824 30.4042 46.5737 30.5581 46.3482 30.6798C45.5831 29.4465 45.0288 28.9721 44.6569 28.7919C44.4759 28.4183 43.9983 27.8617 42.7613 27.0919C42.8822 26.8677 43.0355 26.6618 43.2203 26.4769C43.7205 25.977 44.3854 25.7016 45.0926 25.7016ZM35.0936 28.7972C35.1247 28.198 35.4279 27.6433 35.9477 27.2351C36.4958 26.8046 37.2127 26.5897 37.9648 26.6282C39.5003 26.708 42.5085 28.4456 43.2357 29.204C43.2047 29.2372 43.1732 29.2723 43.141 29.3101C42.2119 30.0127 39.212 31.3297 37.7247 31.2522H37.7248C36.2077 31.1734 35.0274 30.0722 35.0936 28.7972Z" fill="#73BE48"/>
<path d="M49.0792 40.6172C48.6892 40.6172 48.373 40.9334 48.373 41.3234V42.7474C48.373 43.1374 48.6892 43.4536 49.0792 43.4536C49.4692 43.4536 49.7854 43.1374 49.7854 42.7474V41.3234C49.7854 40.9334 49.4692 40.6172 49.0792 40.6172Z" fill="#73BE48"/>
<path d="M44.2902 19.9927C44.6802 19.9927 44.9963 19.6765 44.9963 19.2865V17.8624C44.9963 17.4724 44.6802 17.1562 44.2902 17.1562C43.9002 17.1562 43.584 17.4724 43.584 17.8624V19.2865C43.584 19.6765 43.9002 19.9927 44.2902 19.9927Z" fill="#73BE48"/>
<path d="M42.8351 43.3789C42.4451 43.3789 42.1289 43.6951 42.1289 44.0851V45.5091C42.1289 45.8991 42.4451 46.2153 42.8351 46.2153C43.2251 46.2153 43.5413 45.8991 43.5413 45.5091V44.0851C43.5413 43.6951 43.2251 43.3789 42.8351 43.3789Z" fill="#73BE48"/>
<path d="M0.616201 5.37773L3.11358 6.50297C3.22058 6.55113 3.3053 6.64652 3.34808 6.76687L4.3478 9.57773C4.48901 9.97488 4.98847 9.97488 5.12968 9.57773L6.12929 6.76687C6.17206 6.64652 6.2569 6.55113 6.36378 6.50297L8.86116 5.37773C9.21401 5.21883 9.21401 4.65668 8.86116 4.49766L6.36378 3.37254C6.2569 3.32426 6.17206 3.22898 6.12929 3.10863L5.12968 0.297773C4.98847 -0.0992578 4.48901 -0.0992578 4.3478 0.297773L3.34808 3.10863C3.3053 3.22898 3.22058 3.32438 3.11358 3.37254L0.616201 4.49766C0.26335 4.65668 0.26335 5.21883 0.616201 5.37773Z" fill="#73BE48"/>
<path d="M28.593 9.01402C29.7985 9.01402 30.7759 8.0368 30.7759 6.83129C30.7759 5.62566 29.7986 4.64844 28.593 4.64844C27.3874 4.64844 26.4102 5.62566 26.4102 6.83129C26.4102 8.0368 27.3875 9.01402 28.593 9.01402Z" fill="#73BE48"/>
<path d="M20.106 4.48937C20.6166 4.48937 21.0304 4.07547 21.0304 3.565C21.0304 3.05441 20.6165 2.64062 20.106 2.64062C19.5955 2.64062 19.1816 3.05453 19.1816 3.565C19.1816 4.07559 19.5955 4.48937 20.106 4.48937Z" fill="#73BE48"/>
<path d="M53.374 7.60654L55.2265 8.44115C55.3058 8.47689 55.3686 8.54756 55.4004 8.63686L56.142 10.722C56.2467 11.0166 56.6173 11.0166 56.7219 10.722L57.4635 8.63686C57.4952 8.54756 57.5581 8.47689 57.6374 8.44115L59.4899 7.60654C59.7516 7.48865 59.7516 7.0717 59.4899 6.95369L57.6374 6.11908C57.5581 6.08334 57.4952 6.01256 57.4635 5.92326L56.7219 3.83814C56.6172 3.54354 56.2466 3.54354 56.142 3.83814L55.4004 5.92326C55.3686 6.01256 55.3058 6.08334 55.2265 6.11908L53.374 6.95369C53.1123 7.07158 53.1123 7.48854 53.374 7.60654Z" fill="#73BE48"/>
</g>
<defs>
<clipPath id="clip0_5621_2693">
<rect width="60" height="60" fill="white"/>
</clipPath>
</defs>
</svg>
