<svg width="60" height="60" viewBox="0 0 60 60" fill="none" xmlns="http://www.w3.org/2000/svg">
<path d="M58.0627 33.3042C58.0619 33.3034 58.061 33.3027 58.06 33.3017C56.1629 30.5875 53.0157 28.8085 49.4603 28.8085H44.6953C44.5401 28.517 44.36 28.1536 44.1644 27.7593C43.154 25.7218 41.463 22.3114 38.559 19.3259C35.0212 15.6888 30.5934 13.6021 25.3985 13.1236C17.5304 12.3991 11.3165 14.2197 6.93006 18.5357C3.69088 21.7227 1.47357 26.3435 0.517675 31.8986C-0.159434 35.8336 0.0114251 38.9091 0.0400188 39.3372C0.0547845 42.9308 1.94443 46.3034 4.99213 48.2015C4.98639 48.3336 4.98205 48.4661 4.98205 48.5995C4.98205 53.6306 9.07518 57.7238 14.1064 57.7238C18.7371 57.7238 22.5704 54.2554 23.1517 49.7806H36.467C37.0484 54.2554 40.8817 57.7238 45.5124 57.7238C50.5436 57.7238 54.6367 53.6306 54.6367 48.5995C54.6367 48.5383 54.6333 48.478 54.6322 48.4171C57.8042 46.6133 59.8422 43.2433 59.9413 39.5748C59.982 39.4803 60.0029 39.3775 59.9996 39.2728C59.873 35.1698 58.1367 33.3785 58.0627 33.3042ZM56.0219 34.5126C56.8719 35.6757 57.4198 37.0719 57.5513 38.5859H53.3871C52.264 38.5859 51.3504 37.6723 51.3504 36.5492C51.3504 35.4262 52.264 34.5125 53.3871 34.5125L56.0219 34.5126ZM14.1064 55.3617C10.3777 55.3617 7.34432 52.3282 7.34432 48.5996C7.34432 44.8709 10.3778 41.8375 14.1064 41.8375C17.8351 41.8375 20.8685 44.8711 20.8685 48.5996C20.8685 52.3282 17.8349 55.3617 14.1064 55.3617ZM45.5124 55.3617C41.7837 55.3617 38.7503 52.3282 38.7503 48.5996C38.7503 44.8709 41.7838 41.8375 45.5124 41.8375C49.2411 41.8375 52.2745 44.8711 52.2745 48.5996C52.2745 52.3282 49.2411 55.3617 45.5124 55.3617ZM54.2212 45.8758C53.06 42.1709 49.5952 39.4753 45.5124 39.4753C40.8817 39.4753 37.0484 42.9437 36.467 47.4185H23.1517C22.5704 42.9437 18.7371 39.4753 14.1064 39.4753C10.1058 39.4753 6.70084 42.0644 5.47271 45.6542C3.55646 44.1244 2.40217 41.7757 2.40217 39.2947C2.40217 39.2655 2.401 39.2355 2.39889 39.2064C2.38998 39.0861 1.58795 27.0946 8.59611 20.2106C12.4637 16.4114 18.0441 14.8187 25.182 15.476C35.9276 16.4656 40.0617 24.8025 42.0483 28.8089C42.4437 29.6062 42.756 30.236 43.0483 30.6601C43.2687 30.9799 43.6324 31.1709 44.0208 31.1709H49.4606C51.4571 31.1709 53.2865 31.8962 54.7026 33.0954H53.3871C51.4825 33.0954 49.9331 34.6448 49.9331 36.5493C49.9331 38.4539 51.4825 40.0033 53.3871 40.0033H57.5517C57.3437 42.3529 56.1125 44.5011 54.2212 45.8758Z" fill="#73BE48"/>
<path d="M6.31974 29.1945C5.68857 29.0305 5.04357 29.4089 4.87927 30.0402C4.76056 30.4653 4.70724 30.7128 4.62322 31.1497C4.49408 31.7891 4.90775 32.4121 5.54712 32.5413C5.62611 32.5572 5.70462 32.5648 5.7822 32.5648C6.33263 32.5648 6.82552 32.1778 6.93872 31.6174C7.01536 31.2196 7.05451 31.0348 7.16536 30.635C7.32954 30.0037 6.95091 29.3588 6.31974 29.1945Z" fill="#73BE48"/>
<path d="M5.33675 33.7204C4.68754 33.6578 4.11027 34.1331 4.04757 34.7824C4.00222 35.2308 3.97925 35.4747 3.94773 36.016C3.90636 36.6669 4.40054 37.2283 5.05152 37.2696C5.07707 37.2713 5.10238 37.2721 5.12757 37.2721C5.74562 37.2721 6.26547 36.7913 6.30519 36.1658C6.33519 35.6475 6.35675 35.4272 6.39882 35.0096C6.46164 34.3603 5.98609 33.7831 5.33675 33.7204Z" fill="#73BE48"/>
<path d="M14.1068 45.543C12.4206 45.543 11.0488 46.9148 11.0488 48.601C11.0488 50.2872 12.4206 51.659 14.1068 51.659C15.793 51.659 17.1648 50.2872 17.1648 48.601C17.1647 46.9148 15.793 45.543 14.1068 45.543ZM14.1068 50.2416C13.2021 50.2416 12.4661 49.5055 12.4661 48.6009C12.4661 47.6962 13.2021 46.9602 14.1068 46.9602C15.0114 46.9602 15.7475 47.6962 15.7475 48.6009C15.7475 49.5057 15.0114 50.2416 14.1068 50.2416Z" fill="#73BE48"/>
<path d="M45.5121 45.543C43.8259 45.543 42.4541 46.9148 42.4541 48.601C42.4541 50.2872 43.8259 51.659 45.5121 51.659C47.1983 51.659 48.5701 50.2872 48.5701 48.601C48.5701 46.9148 47.1983 45.543 45.5121 45.543ZM45.5121 50.2416C44.6074 50.2416 43.8715 49.5055 43.8715 48.6009C43.8715 47.6962 44.6074 46.9602 45.5121 46.9602C46.4168 46.9602 47.1528 47.6962 47.1528 48.6009C47.1528 49.5057 46.4168 50.2416 45.5121 50.2416Z" fill="#73BE48"/>
<path d="M25.9302 19.2591C25.5242 19.1906 25.1074 19.1368 24.691 19.0994C24.0165 19.0389 23.341 19.2676 22.8385 19.7268C22.3305 20.1914 22.0391 20.8524 22.0391 21.5406V28.7731C22.0391 30.1236 23.1378 31.2223 24.4883 31.2223H33.9357C34.7322 31.2223 35.4568 30.852 35.9237 30.2063C36.3882 29.5639 36.5124 28.7647 36.2645 28.0135C35.3498 25.2418 32.7909 20.4187 25.9302 19.2591ZM34.7752 29.3759C34.578 29.6486 34.272 29.8052 33.9358 29.8052H24.4884C23.9195 29.8052 23.4564 29.3423 23.4564 28.7732V21.5408C23.4564 21.2494 23.5798 20.9696 23.7949 20.773C24.0071 20.5783 24.2832 20.4853 24.5642 20.511C24.9441 20.5451 25.3242 20.5941 25.6939 20.6566C31.822 21.6924 34.1039 25.9887 34.9186 28.4576C35.0223 28.7718 34.97 29.1065 34.7752 29.3759Z" fill="#73BE48"/>
<path d="M17.2366 21.195C16.4875 20.7519 15.5866 20.7367 14.8266 21.1544C11.9471 22.7369 9.78368 25.0294 8.57021 27.7843C8.23529 28.5447 8.3063 29.4142 8.7604 30.1103C9.21439 30.8064 9.98138 31.2219 10.8122 31.2219H15.9939C17.3445 31.2219 18.4431 30.1231 18.4431 28.7726V23.3081C18.443 22.4319 17.992 21.6419 17.2366 21.195ZM17.0258 28.7726C17.0258 29.3416 16.5629 29.8046 15.9938 29.8046H10.8121C10.4568 29.8046 10.1417 29.6339 9.9474 29.3361C9.75322 29.0383 9.72392 28.6809 9.86724 28.3557C10.9542 25.8883 12.9051 23.8277 15.5092 22.3965C15.8304 22.22 16.197 22.2268 16.5151 22.4149C16.8349 22.604 17.0258 22.938 17.0258 23.3081V28.7726Z" fill="#73BE48"/>
<path d="M33.7506 38.2266C33.3592 38.2266 33.042 38.5439 33.042 38.9352V40.3643C33.042 40.7557 33.3593 41.0729 33.7506 41.0729C34.1419 41.0729 34.4593 40.7556 34.4593 40.3643V38.9352C34.4594 38.5439 34.142 38.2266 33.7506 38.2266Z" fill="#73BE48"/>
<path d="M37.942 35.125C37.5506 35.125 37.2334 35.4423 37.2334 35.8336V37.2627C37.2334 37.6541 37.5507 37.9714 37.942 37.9714C38.3333 37.9714 38.6507 37.654 38.6507 37.2627V35.8336C38.6508 35.4423 38.3334 35.125 37.942 35.125Z" fill="#73BE48"/>
<path d="M50.6972 18.5377L53.2035 19.6669C53.3109 19.7152 53.3958 19.8109 53.4388 19.9317L54.4421 22.7527C54.5839 23.1512 55.0851 23.1512 55.2268 22.7527L56.23 19.9317C56.2729 19.8109 56.358 19.7153 56.4653 19.6669L58.9716 18.5377C59.3256 18.3782 59.3256 17.814 58.9716 17.6544L56.4653 16.5253C56.358 16.4769 56.273 16.3813 56.23 16.2605L55.2268 13.4395C55.0851 13.041 54.5838 13.041 54.4421 13.4395L53.4388 16.2605C53.396 16.3813 53.3109 16.4769 53.2035 16.5253L50.6972 17.6544C50.3431 17.814 50.3431 18.3782 50.6972 18.5377Z" fill="#73BE48"/>
<path d="M52.7691 4.8905C52.9167 3.68914 52.0625 2.5956 50.8611 2.448C49.6598 2.3004 48.5662 3.15464 48.4186 4.356C48.271 5.55736 49.1253 6.6509 50.3266 6.7985C51.528 6.9461 52.6215 6.09186 52.7691 4.8905Z" fill="#73BE48"/>
<path d="M28.3398 4.12739C28.8516 4.10177 29.2458 3.66609 29.2202 3.15428C29.1945 2.64246 28.7589 2.24831 28.247 2.27393C27.7352 2.29955 27.3411 2.73522 27.3667 3.24704C27.3923 3.75886 27.828 4.153 28.3398 4.12739Z" fill="#73BE48"/>
<path d="M32.2165 6.97214L34.0756 7.80968C34.1551 7.84554 34.2182 7.91655 34.25 8.0062L34.9942 10.0987C35.0993 10.3944 35.4711 10.3944 35.5763 10.0987L36.3204 8.0062C36.3523 7.91655 36.4153 7.84565 36.4949 7.80968L38.354 6.97214C38.6166 6.85378 38.6166 6.4353 38.354 6.31694L36.4949 5.4794C36.4153 5.44354 36.3523 5.37253 36.3204 5.283L35.5763 3.1905C35.4711 2.89483 35.0993 2.89483 34.9942 3.1905L34.25 5.283C34.2182 5.37253 34.1551 5.44354 34.0756 5.4794L32.2165 6.31694C31.9539 6.43542 31.9539 6.8539 32.2165 6.97214Z" fill="#73BE48"/>
</svg>
