<svg width="60" height="60" viewBox="0 0 60 60" fill="none" xmlns="http://www.w3.org/2000/svg">
<path d="M24.2 27.5867C24.787 27.5731 25.2517 27.0863 25.2381 26.4993C25.2245 25.9124 24.7376 25.4475 24.1508 25.4612C23.5638 25.4748 23.099 25.9617 23.1126 26.5486C23.1262 27.1356 23.613 27.6004 24.2 27.5867Z" fill="#73BE48"/>
<path d="M35.7781 27.3171C36.365 27.3035 36.8299 26.8167 36.8163 26.2297C36.8027 25.6429 36.3158 25.178 35.7289 25.1917C35.1419 25.2053 34.6771 25.6922 34.6907 26.2791C34.7043 26.866 35.1912 27.3307 35.7781 27.3171Z" fill="#73BE48"/>
<path d="M29.972 26.7383C29.7554 26.7434 29.5528 26.8463 29.421 27.0182L28.1467 28.6807C27.9063 28.9943 27.9656 29.4433 28.2791 29.6835C28.409 29.783 28.5619 29.8311 28.7138 29.8311C28.9286 29.8311 29.1411 29.7347 29.2819 29.5511L30.0151 28.5946L30.7917 29.516C31.0465 29.818 31.4974 29.8563 31.7997 29.6019C32.1017 29.3473 32.1402 28.8961 31.8856 28.594L30.5354 26.9923C30.396 26.8267 30.1906 26.7358 29.972 26.7383Z" fill="#73BE48"/>
<path d="M27.7774 22.8828C27.8701 22.8828 27.9642 22.872 28.0585 22.8492C28.6497 22.7062 29.28 22.6756 29.8819 22.7606C30.5344 22.8536 31.137 22.3988 31.229 21.7469C31.3211 21.095 30.8672 20.4918 30.2153 20.3998C29.3058 20.2713 28.3917 20.3157 27.4982 20.5318C26.8582 20.6864 26.4648 21.3306 26.6196 21.9706C26.7516 22.5164 27.2395 22.8828 27.7774 22.8828Z" fill="#73BE48"/>
<path d="M24.7808 24.555C25.0956 24.555 25.4099 24.4311 25.6442 24.1851C25.719 24.1066 25.8029 24.0288 25.9007 23.9468C26.406 23.5249 26.4736 22.773 26.0514 22.2678C25.6293 21.7625 24.8776 21.695 24.3724 22.1171C24.2042 22.2575 24.0555 22.3961 23.9177 22.5408C23.4637 23.0175 23.4821 23.7721 23.9588 24.2262C24.1897 24.4461 24.4854 24.555 24.7808 24.555Z" fill="#73BE48"/>
<path d="M57.229 32.8663H54.4609L54.8704 32.1174C55.763 30.4848 55.1611 28.4304 53.5286 27.5377L46.5011 23.6951C44.8683 22.8025 42.8139 23.4045 41.9212 25.0369L41.192 26.3705C41.1382 25.7637 41.0215 25.1731 40.8479 24.6032C42.4446 23.9112 43.5479 22.3027 43.5052 20.4586C43.4489 18.0305 41.432 16.0971 38.9996 16.1574C37.4002 16.1944 35.9726 17.0987 35.2318 18.4575C33.5981 17.7068 31.7296 17.3004 29.7543 17.3473C27.7993 17.3927 25.9471 17.8852 24.3377 18.7164C23.5527 17.418 22.1284 16.5861 20.5659 16.5861C20.5321 16.5861 20.4979 16.5864 20.4637 16.5872C19.6168 16.6068 18.8139 16.865 18.1335 17.3159L14.5543 7.07477C14.0496 5.63066 12.6827 4.66023 11.1529 4.66023C10.7405 4.65789 3.94277 4.70934 3.57879 4.70992C1.60547 4.72363 0 6.33988 0 8.31344C0 9.28035 0.37793 10.1882 1.06395 10.8698C1.75008 11.5512 2.66484 11.9208 3.62754 11.9166L8.60086 11.8829L15.9373 32.875C14.5063 32.9818 13.3743 34.1795 13.3743 35.6375V37.8052C13.3743 39.1173 14.2914 40.2187 15.5181 40.5037V47.8286C15.5181 50.4026 17.6122 52.4965 20.1862 52.4965H40.4323C41.2755 56.549 44.874 59.6035 49.1729 59.6035C54.096 59.6035 58.1011 55.5984 58.1011 50.6754C58.1011 49.9015 58.0018 49.1504 57.8157 48.4338C57.8416 48.2336 57.8559 48.0311 57.8559 47.8286V40.5038C59.0827 40.2188 59.9999 39.1175 59.9999 37.8052V35.6375C60 34.1095 58.7569 32.8663 57.229 32.8663ZM44.0133 26.1809C44.2751 25.7017 44.8781 25.5249 45.3572 25.7871L52.3847 29.6296C52.8637 29.8916 53.0404 30.4945 52.7784 30.9735L51.7434 32.8663H50.376L50.9475 31.8209C51.321 31.1378 51.069 30.2779 50.3859 29.9042L46.2047 27.618C45.8734 27.4369 45.4917 27.3958 45.13 27.5018C44.768 27.6079 44.4688 27.8486 44.2879 28.1796L42.0016 32.3608C41.9145 32.5202 41.8607 32.6914 41.8391 32.8663H40.3577L44.0133 26.1809ZM43.3556 32.8663L45.5344 28.8818L49.6839 31.1507L48.7457 32.8663H43.3556ZM39.0551 18.541C40.1715 18.511 41.0958 19.4002 41.1217 20.5138C41.1416 21.3777 40.6126 22.1271 39.855 22.433C39.1957 21.3797 38.3223 20.4456 37.2875 19.6743C37.6137 19.0082 38.291 18.5588 39.0551 18.541ZM29.8097 19.731C29.8923 19.7291 29.9746 19.7282 30.0566 19.7282C33.5562 19.7282 36.5934 21.4587 38.0033 23.9771C38.4458 24.9326 38.8588 25.8814 38.8409 26.9934C38.8935 29.2671 37.7509 31.3899 35.695 32.8663H23.5682L21.2075 26.1116C21.23 26.0534 21.2495 25.9934 21.263 25.9304C22.0076 22.4358 25.6021 19.8288 29.8097 19.731ZM20.5192 18.9709C21.2834 18.9527 21.9825 19.372 22.3391 20.0242C21.4036 20.7886 20.6139 21.691 20.014 22.6964L18.9803 19.7386C19.3515 19.2679 19.9106 18.9851 20.5192 18.9709ZM9.4452 9.49281C9.44238 9.49281 9.43969 9.49281 9.43699 9.49281L3.61148 9.5323C3.28336 9.53242 2.97621 9.40879 2.74418 9.17816C2.51203 8.94766 2.38418 8.64051 2.38418 8.31344C2.38418 7.64582 2.92734 7.09902 3.59496 7.09445C3.90527 7.09398 10.8328 7.0423 11.153 7.04477C11.6705 7.04477 12.133 7.37301 12.3036 7.86156L21.0424 32.8664H18.46L10.5704 10.2917C10.4031 9.81297 9.95156 9.49281 9.4452 9.49281ZM15.7586 35.6375C15.7586 35.4242 15.932 35.2506 16.1453 35.2506H36.0559C36.0598 35.2506 36.0635 35.2513 36.0674 35.2513C36.0707 35.2513 36.0739 35.2506 36.0771 35.2506H57.2289C57.4421 35.2506 57.6156 35.4242 57.6156 35.6375V37.8052C57.6156 38.0185 57.4421 38.1919 57.2289 38.1919H16.1453C15.932 38.1919 15.7586 38.0185 15.7586 37.8052V35.6375ZM17.9024 47.8286V40.5762H55.4719V44.3546C53.8561 42.7444 51.6289 41.7475 49.173 41.7475C44.4394 41.7475 40.5564 45.4511 40.2647 50.1123H20.1862C18.927 50.1123 17.9024 49.0879 17.9024 47.8286ZM49.1729 57.2193C45.5647 57.2193 42.6292 54.2838 42.6292 50.6755C42.6292 47.0673 45.5647 44.1318 49.1729 44.1318C52.7813 44.1318 55.7168 47.0673 55.7168 50.6755C55.7169 54.2836 52.7814 57.2193 49.1729 57.2193Z" fill="#73BE48"/>
<path d="M49.173 47.6797C47.5219 47.6797 46.1787 49.0229 46.1787 50.6739C46.1787 52.325 47.5219 53.6682 49.173 53.6682C50.824 53.6682 52.1672 52.325 52.1672 50.6739C52.1672 49.0229 50.824 47.6797 49.173 47.6797ZM49.173 52.2377C48.3108 52.2377 47.6092 51.5362 47.6092 50.6739C47.6092 49.8118 48.3107 49.1102 49.173 49.1102C50.0352 49.1102 50.7367 49.8118 50.7367 50.6739C50.7367 51.5362 50.0352 52.2377 49.173 52.2377Z" fill="#73BE48"/>
<path d="M38.1089 42.0664C37.7138 42.0664 37.3936 42.3867 37.3936 42.7817V44.2243C37.3936 44.6193 37.7138 44.9396 38.1089 44.9396C38.5039 44.9396 38.8242 44.6193 38.8242 44.2243V42.7817C38.8241 42.3867 38.5038 42.0664 38.1089 42.0664Z" fill="#73BE48"/>
<path d="M33.1186 45.1953C32.7236 45.1953 32.4033 45.5156 32.4033 45.9106V47.3531C32.4033 47.7481 32.7236 48.0684 33.1186 48.0684C33.5137 48.0684 33.8339 47.7481 33.8339 47.3531V45.9106C33.8339 45.5156 33.5137 45.1953 33.1186 45.1953Z" fill="#73BE48"/>
<path d="M30.5864 42.0664C30.1914 42.0664 29.8711 42.3867 29.8711 42.7817V44.2243C29.8711 44.6193 30.1914 44.9396 30.5864 44.9396C30.9814 44.9396 31.3017 44.6193 31.3017 44.2243V42.7817C31.3017 42.3867 30.9814 42.0664 30.5864 42.0664Z" fill="#73BE48"/>
<path d="M50.2065 17.0332L52.7362 18.1729C52.8444 18.2217 52.9302 18.3184 52.9737 18.4402L53.9863 21.2874C54.1294 21.6897 54.6353 21.6897 54.7783 21.2874L55.7909 18.4402C55.8342 18.3184 55.92 18.2217 56.0283 18.1729L58.5579 17.0332C58.9153 16.8721 58.9153 16.3027 58.5579 16.1417L56.0283 15.0021C55.92 14.9532 55.8342 14.8566 55.7909 14.7348L54.7783 11.8876C54.6352 11.4854 54.1293 11.4854 53.9863 11.8876L52.9737 14.7348C52.9303 14.8566 52.8446 14.9532 52.7362 15.0021L50.2065 16.1417C49.8491 16.3029 49.8491 16.8723 50.2065 17.0332Z" fill="#73BE48"/>
<path d="M46.4746 10.2423C47.6957 10.2423 48.6856 9.25238 48.6856 8.03129C48.6856 6.8102 47.6957 5.82031 46.4746 5.82031C45.2536 5.82031 44.2637 6.8102 44.2637 8.03129C44.2637 9.25238 45.2536 10.2423 46.4746 10.2423Z" fill="#73BE48"/>
<path d="M21.7615 9.90391C22.2787 9.90391 22.6979 9.48473 22.6979 8.96758C22.6979 8.45043 22.2787 8.03125 21.7615 8.03125C21.2444 8.03125 20.8252 8.45043 20.8252 8.96758C20.8252 9.48461 21.2445 9.90391 21.7615 9.90391Z" fill="#73BE48"/>
<path d="M25.817 4.43533L27.6934 5.28072C27.7738 5.31693 27.8374 5.38853 27.8695 5.479L28.6207 7.59107C28.7267 7.88943 29.1021 7.88943 29.2081 7.59107L29.9592 5.479C29.9914 5.38865 30.0551 5.31693 30.1353 5.28072L32.0117 4.43533C32.2768 4.31592 32.2768 3.89346 32.0117 3.77404L30.1353 2.92865C30.0549 2.89244 29.9913 2.82084 29.9592 2.73037L29.2081 0.618301C29.1021 0.319941 28.7267 0.319941 28.6207 0.618301L27.8695 2.73037C27.8374 2.82072 27.7737 2.89244 27.6934 2.92865L25.817 3.77404C25.5519 3.89346 25.5519 4.31592 25.817 4.43533Z" fill="#73BE48"/>
</svg>
